<?xml version="1.0" encoding="UTF-8"?>
<svg id="Lager_1" data-name="Lager 1" xmlns="http://www.w3.org/2000/svg" viewBox="0 0 102 44">
  <defs>
    <style>
      .cls-1 {
        fill: #f7a941;
      }

      .cls-2 {
        fill: #00528c;
      }

      .cls-3 {
        fill: #fff;
      }

      .cls-4 {
        fill: #b2b2b2;
      }

      .cls-5 {
        fill: #2e8bb7;
      }
    </style>
  </defs>
  <path class="cls-3" d="M30.93,9.14v24.8c0,2.64-.41,3.52-1.09,4.09-1.04,.88-3.22,1.35-6.18,1.78-3.03,.45-5.26,1.15-6.61,2.09l-.07,.05-.07-.05c-1.36-.94-3.58-1.64-6.61-2.09-2.96-.43-5.14-.9-6.18-1.78-.68-.57-1.09-1.45-1.09-4.09V9.14H30.93"/>
  <path class="cls-4" d="M30.41,9.95v23.87c0,2.54-.4,3.39-1.04,3.93-1,.84-3.1,1.3-5.94,1.71-2.92,.43-5.06,1.1-6.36,2.01l-.07,.04-.07-.04c-1.3-.91-3.44-1.58-6.36-2.01-2.85-.43-4.93-.88-5.94-1.72-.64-.54-1.04-1.39-1.04-3.93V9.95H30.41m1.51-1.51H2.08v25.38c0,5.05,1.45,6.14,8.28,7.14,6.39,.94,6.64,2.75,6.64,2.98h0c0-.23,.26-2.04,6.64-2.98,6.83-1,8.28-2.09,8.28-7.14V8.44h0Z"/>
  <path class="cls-5" d="M27.14,30.69c-.19-.21-.41-.39-.66-.52,.2-.16,.38-.36,.52-.58,.39-.64,.47-1.42,.2-2.12-.27-.72-.76-1.33-1.41-1.74h-.01c-1.44-.93-3.25-.7-4.02,.5-.3,.46-.42,1-.35,1.54l-3.7-4.28,3.08-2.63c-.14,.52-.1,1.07,.13,1.56,.4,.9,1.36,1.41,2.43,1.41,.51,0,1.01-.11,1.47-.32h.02c.7-.31,1.29-.84,1.65-1.51,.37-.66,.41-1.44,.11-2.13-.12-.26-.27-.49-.47-.69,.27-.1,.52-.24,.74-.43,1.09-.93,1.07-2.74-.04-4.05h0c-1.11-1.3-2.9-1.61-3.99-.68-.22,.18-.4,.39-.54,.64-.16-.21-.36-.39-.58-.54-1.19-.78-2.93-.26-3.88,1.17v.02h0c-.43,.64-.64,1.4-.59,2.16,.04,.75,.43,1.44,1.04,1.86,.38,.25,.82,.39,1.27,.39,.09,0,.17,0,.26-.02l-3.11,2.65-5.47-6.28c-.18-.21-.47-.3-.74-.24,.14-.42-.08-.88-.51-1.03-.42-.14-.88,.08-1.03,.51-.14,.42,.08,.88,.51,1.03,.15,.05,.32,.06,.48,.01-.08,.25-.03,.51,.14,.71l.13,.15-1.82,.22-2.76,2.43,1.62,1.86,1.46-1.27-.62-.7,.59-.52,.62,.71,.81-.71,.52,.59-.81,.71,.62,.71-.59,.52-.63-.71-1.46,1.27,1.59,1.82,2.78-2.42,.47-1.77,2.96,3.38-7.53,6.41c-.21,.18-.31,.47-.24,.74-.09-.03-.18-.05-.28-.05-.44,0-.81,.36-.81,.81,0,.44,.36,.81,.81,.81s.81-.36,.81-.81c0,0,0,0,0,0,0-.07-.01-.13-.03-.2,.08,.02,.15,.04,.23,.04,.18,0,.35-.06,.49-.18l.15-.13,.2,1.82,2.4,2.81,1.87-1.6-1.26-1.47-.72,.6-.52-.6,.74-.6-.71-.83,.6-.52,.7,.83,.72-.61,.52,.6-.72,.61,1.24,1.49,1.84-1.56-2.39-2.81-1.76-.5,4.64-3.95,3.7,4.26c-.52-.14-1.08-.09-1.56,.14-1.3,.6-1.77,2.35-1.04,3.91h0v.02c.31,.7,.85,1.28,1.53,1.64,.37,.19,.77,.29,1.19,.3,.33,0,.65-.07,.95-.21,.25-.12,.49-.28,.69-.48,.34,.95,1.26,1.56,2.27,1.52,.82-.01,1.61-.32,2.22-.87h.01c1.32-1.14,1.6-2.93,.66-4Zm-8.04-12.62c-.23-.17-.36-.44-.37-.72-.02-.43,.1-.85,.34-1.21h0c.47-.72,1.3-1.06,1.78-.74,.11,.07,.45,.33,.29,.68-.18,.37-.02,.83,.35,1.01,0,0,0,0,0,0,.1,.05,.21,.08,.33,.08,.24,0,.47-.12,.61-.32,.14,.13,.33,.2,.52,.2,.42,0,.76-.34,.76-.76,0-.15-.04-.29-.12-.41-.21-.32,.1-.62,.2-.7,.45-.38,1.3-.15,1.86,.52h0c.56,.66,.66,1.54,.21,1.91-.1,.09-.45,.34-.73,.09-.34-.24-.81-.17-1.06,.17-.18,.24-.19,.57-.04,.83-.37,.19-.53,.64-.34,1.01,.16,.33,.55,.5,.9,.39,.36-.11,.56,.26,.62,.39,.1,.27,.07,.57-.07,.81-.21,.37-.54,.67-.94,.83h-.01c-.78,.35-1.66,.2-1.9-.33-.05-.12-.2-.52,.12-.72,.36-.22,.47-.68,.25-1.04-.15-.24-.41-.38-.69-.36,.12-.4-.1-.82-.5-.94-.1-.03-.21-.04-.32-.03,.09-.41-.16-.81-.57-.9-.27-.06-.55,.03-.73,.24-.26,.29-.64,.08-.75,0Zm4.48,15.73c-.09-.1-.35-.44-.1-.73,.28-.31,.25-.79-.06-1.07-.27-.24-.67-.26-.96-.04-.19-.37-.65-.51-1.02-.32-.32,.17-.48,.54-.37,.89,.11,.36-.26,.57-.39,.62-.27,.1-.56,.08-.81-.07-.38-.21-.67-.53-.84-.93h0c-.36-.8-.22-1.67,.31-1.92,.12-.05,.52-.21,.73,.11,.23,.34,.7,.43,1.05,.2,.22-.15,.34-.4,.33-.66,.07,.02,.14,.03,.21,.03,.18,0,.36-.07,.5-.19,.2-.17,.3-.42,.26-.68,.05,.01,.1,.02,.15,.02,.42,0,.76-.34,.76-.76,0-.22-.1-.43-.27-.58-.29-.25-.08-.62,0-.73,.32-.5,1.2-.52,1.93-.05h0c.37,.23,.65,.57,.8,.97,.11,.26,.09,.56-.05,.81-.07,.11-.33,.46-.67,.3-.38-.17-.83,0-1,.38-.15,.33-.04,.71,.25,.92-.27,.32-.24,.79,.08,1.07,.25,.22,.62,.24,.9,.06,.32-.21,.62,.1,.71,.2,.39,.44,.16,1.3-.49,1.86h0c-.67,.59-1.54,.7-1.93,.26Z"/>
  <rect class="cls-1" x="6.6" y="4.31" width="3.18" height="1.44"/>
  <rect class="cls-1" x="10.51" y="4.31" width="3.18" height="1.44"/>
  <rect class="cls-1" x="8.69" y="6.34" width="2.92" height="1.44"/>
  <polygon class="cls-1" points="5.44 7.77 5.44 7.78 7.98 7.78 7.98 6.34 6.61 6.34 5.44 7.77"/>
  <polygon class="cls-1" points="12.31 6.34 12.31 7.78 14.85 7.78 14.85 7.77 13.68 6.34 12.31 6.34"/>
  <path class="cls-1" d="M5.21,.07v.99h-1.22V.07h-1.37v.99H1.39V.07H.03V3.27H.7v2.87l1.39,1.65h2.42l1.39-1.66V3.26h.68V.07h-1.37Zm-1.39,6.06h-1.04V3.84h1.04v2.29Z"/>
  <path class="cls-1" d="M19.6,3.27h.68V.07h-1.37v.99h-1.22V.07h-1.36v.99h-1.24V.07h-1.37V3.27h.68v2.87l1.39,1.65h2.42l1.39-1.65V3.27Zm-2.08,2.87h-1.04V3.84h1.04v2.3Z"/>
  <rect class="cls-1" x="24.23" y="4.31" width="3.18" height="1.44"/>
  <rect class="cls-1" x="20.32" y="4.31" width="3.18" height="1.44"/>
  <rect class="cls-1" x="22.4" y="6.34" width="2.92" height="1.44"/>
  <polygon class="cls-1" points="26.03 6.34 26.03 7.78 28.57 7.78 28.57 7.77 27.4 6.34 26.03 6.34"/>
  <polygon class="cls-1" points="19.16 7.77 19.16 7.78 21.7 7.78 21.7 6.34 20.33 6.34 19.16 7.77"/>
  <path class="cls-1" d="M33.98,.07h-1.37v.99h-1.22V.07h-1.37v.99h-1.22V.07h-1.37V3.27h.68v2.87l1.39,1.65h2.42l1.39-1.65V3.27h.68V.07Zm-2.76,6.06h-1.04V3.84h1.04v2.29Z"/>
  <path class="cls-2" d="M46.61,19.14v-5.21h2.05v5.19c0,1.59,.9,2.13,1.86,2.13s1.86-.57,1.86-2.13v-5.18h2.01v5.21c0,2.63-1.89,3.91-3.89,3.91s-3.89-1.29-3.89-3.92Z"/>
  <polygon class="cls-2" points="70.01 21.13 66.6 21.13 66.6 19.25 69.38 19.25 69.38 17.56 66.6 17.56 66.6 15.73 70.01 15.73 70.01 13.93 64.56 13.93 64.56 22.93 70.01 22.93 70.01 21.13"/>
  <path class="cls-2" d="M77.97,21.2h-3.37l-.7,1.72h-2.14l4.1-9.06h.81l4.13,9.06h-2.12l-.7-1.72Zm-3.25-9.44c-.02-.85,.65-1.55,1.49-1.58,.85-.02,1.55,.65,1.58,1.49,.02,.85-.65,1.55-1.49,1.58-.01,0-.03,0-.04,0-.82,.02-1.51-.63-1.53-1.45,0-.01,0-.03,0-.04Zm2.57,7.77l-.99-2.41h-.05l-.98,2.41h2.02Zm-1.68-7.77c0,.36,.27,.66,.63,.66s.66-.27,.66-.63c0-.36-.27-.66-.63-.66,0,0-.01,0-.02,0-.34-.02-.63,.24-.65,.58,0,.02,0,.04,0,.05Z"/>
  <polygon class="cls-2" points="44.71 21.13 41.57 21.13 41.57 13.93 39.53 13.93 39.53 22.93 44.71 22.93 44.71 21.13"/>
  <polygon class="cls-2" points="62.21 21.13 59.06 21.13 59.06 13.93 57.03 13.93 57.03 22.93 62.21 22.93 62.21 21.13"/>
  <path class="cls-2" d="M42.59,30.84l-1.02,1.17v2.76h-2.03v-8.99h2.04v3.7l3.07-3.7h2.46l-3.17,3.63,3.39,5.35h-2.3l-2.42-3.93Z"/>
  <path class="cls-2" d="M48.19,30.27c0-2.72,2.09-4.63,4.69-4.63s4.67,1.9,4.67,4.63-2.09,4.63-4.67,4.63-4.69-1.89-4.69-4.63Zm7.23,0c0-1.76-1.18-2.8-2.55-2.8s-2.57,1.04-2.57,2.8,1.19,2.8,2.57,2.8,2.56-1.04,2.56-2.8h-.01Z"/>
  <path class="cls-2" d="M68.85,25.7v9.07h-2.02v-5l-2.35,2.62h-.28l-2.42-2.61v4.98h-2v-9.07h.85l3.75,4.1h.01l3.61-4.1h.84Z"/>
  <path class="cls-2" d="M80.82,25.7v9.07h-2.02v-5l-2.35,2.62h-.28l-2.42-2.61v4.98h-2v-9.07h.85l3.75,4.1h.01l3.61-4.1h.85Z"/>
  <path class="cls-2" d="M83.5,30.99v-5.21h2.04v5.18c0,1.59,.9,2.13,1.86,2.13s1.86-.57,1.86-2.13v-5.17h2.02v5.21c0,2.63-1.89,3.91-3.89,3.91s-3.9-1.29-3.9-3.92Z"/>
  <path class="cls-2" d="M95.99,29.57h-.03l.03,5.2h-2.01v-9.07h.85l5.16,5.1h.03l-.03-5.02h1.99v9.06h-.75l-5.24-5.26Z"/>
</svg>