<?xml version="1.0" encoding="utf-8"?>
<svg xmlns="http://www.w3.org/2000/svg" xmlns:xlink="http://www.w3.org/1999/xlink" style="margin: auto; background: none; display: block; shape-rendering: auto;" width="157px" height="157px" viewBox="0 0 100 100" preserveAspectRatio="xMidYMid">
<g transform="rotate(0 50 50)">
  <rect x="47" y="24" rx="1.56" ry="1.56" width="6" height="12" fill="#93dbe9">
    <animate attributeName="opacity" values="1;0" keyTimes="0;1" dur="0.7092198581560283s" begin="-0.6501182033096926s" repeatCount="indefinite"></animate>
  </rect>
</g><g transform="rotate(30 50 50)">
  <rect x="47" y="24" rx="1.56" ry="1.56" width="6" height="12" fill="#93dbe9">
    <animate attributeName="opacity" values="1;0" keyTimes="0;1" dur="0.7092198581560283s" begin="-0.5910165484633569s" repeatCount="indefinite"></animate>
  </rect>
</g><g transform="rotate(60 50 50)">
  <rect x="47" y="24" rx="1.56" ry="1.56" width="6" height="12" fill="#93dbe9">
    <animate attributeName="opacity" values="1;0" keyTimes="0;1" dur="0.7092198581560283s" begin="-0.5319148936170213s" repeatCount="indefinite"></animate>
  </rect>
</g><g transform="rotate(90 50 50)">
  <rect x="47" y="24" rx="1.56" ry="1.56" width="6" height="12" fill="#93dbe9">
    <animate attributeName="opacity" values="1;0" keyTimes="0;1" dur="0.7092198581560283s" begin="-0.47281323877068554s" repeatCount="indefinite"></animate>
  </rect>
</g><g transform="rotate(120 50 50)">
  <rect x="47" y="24" rx="1.56" ry="1.56" width="6" height="12" fill="#93dbe9">
    <animate attributeName="opacity" values="1;0" keyTimes="0;1" dur="0.7092198581560283s" begin="-0.4137115839243498s" repeatCount="indefinite"></animate>
  </rect>
</g><g transform="rotate(150 50 50)">
  <rect x="47" y="24" rx="1.56" ry="1.56" width="6" height="12" fill="#93dbe9">
    <animate attributeName="opacity" values="1;0" keyTimes="0;1" dur="0.7092198581560283s" begin="-0.35460992907801414s" repeatCount="indefinite"></animate>
  </rect>
</g><g transform="rotate(180 50 50)">
  <rect x="47" y="24" rx="1.56" ry="1.56" width="6" height="12" fill="#93dbe9">
    <animate attributeName="opacity" values="1;0" keyTimes="0;1" dur="0.7092198581560283s" begin="-0.29550827423167847s" repeatCount="indefinite"></animate>
  </rect>
</g><g transform="rotate(210 50 50)">
  <rect x="47" y="24" rx="1.56" ry="1.56" width="6" height="12" fill="#93dbe9">
    <animate attributeName="opacity" values="1;0" keyTimes="0;1" dur="0.7092198581560283s" begin="-0.23640661938534277s" repeatCount="indefinite"></animate>
  </rect>
</g><g transform="rotate(240 50 50)">
  <rect x="47" y="24" rx="1.56" ry="1.56" width="6" height="12" fill="#93dbe9">
    <animate attributeName="opacity" values="1;0" keyTimes="0;1" dur="0.7092198581560283s" begin="-0.17730496453900707s" repeatCount="indefinite"></animate>
  </rect>
</g><g transform="rotate(270 50 50)">
  <rect x="47" y="24" rx="1.56" ry="1.56" width="6" height="12" fill="#93dbe9">
    <animate attributeName="opacity" values="1;0" keyTimes="0;1" dur="0.7092198581560283s" begin="-0.11820330969267138s" repeatCount="indefinite"></animate>
  </rect>
</g><g transform="rotate(300 50 50)">
  <rect x="47" y="24" rx="1.56" ry="1.56" width="6" height="12" fill="#93dbe9">
    <animate attributeName="opacity" values="1;0" keyTimes="0;1" dur="0.7092198581560283s" begin="-0.05910165484633569s" repeatCount="indefinite"></animate>
  </rect>
</g><g transform="rotate(330 50 50)">
  <rect x="47" y="24" rx="1.56" ry="1.56" width="6" height="12" fill="#93dbe9">
    <animate attributeName="opacity" values="1;0" keyTimes="0;1" dur="0.7092198581560283s" begin="0s" repeatCount="indefinite"></animate>
  </rect>
</g>
<!-- [ldio] generated by https://loading.io/ --></svg>